<mxfile host="app.diagrams.net" modified="2024-01-02T14:23:22.156Z" agent="Mozilla/5.0 (Windows NT 10.0; Win64; x64) AppleWebKit/537.36 (KHTML, like Gecko) Chrome/120.0.0.0 Safari/537.36" version="22.1.16" etag="s-pdYA3_WYcyY-oR39D4" type="device">
  <diagram id="LCeDQk2CBst3juovSSKP" name="第1頁">
    <mxGraphModel dx="794" dy="459" grid="1" gridSize="10" guides="1" tooltips="1" connect="1" arrows="1" fold="1" page="1" pageScale="1" pageWidth="827" pageHeight="1169" math="0" shadow="0">
      <root>
        <mxCell id="0" />
        <mxCell id="1" parent="0" />
        <mxCell id="rFBtfZBmvq5GdR2NCA0t-1" value="商家" style="shape=umlActor;verticalLabelPosition=bottom;verticalAlign=top;html=1;outlineConnect=0;" parent="1" vertex="1">
          <mxGeometry x="300" y="160" width="30" height="60" as="geometry" />
        </mxCell>
        <mxCell id="rFBtfZBmvq5GdR2NCA0t-2" value="訂單管理" style="rounded=1;whiteSpace=wrap;html=1;" parent="1" vertex="1">
          <mxGeometry x="430" y="230" width="140" height="30" as="geometry" />
        </mxCell>
        <mxCell id="rFBtfZBmvq5GdR2NCA0t-3" value="系統首頁" style="rounded=1;whiteSpace=wrap;html=1;" parent="1" vertex="1">
          <mxGeometry x="430" y="80" width="140" height="30" as="geometry" />
        </mxCell>
        <mxCell id="rFBtfZBmvq5GdR2NCA0t-4" value="個人中心" style="rounded=1;whiteSpace=wrap;html=1;" parent="1" vertex="1">
          <mxGeometry x="430" y="130" width="140" height="30" as="geometry" />
        </mxCell>
        <mxCell id="rFBtfZBmvq5GdR2NCA0t-5" value="美食信息管理" style="rounded=1;whiteSpace=wrap;html=1;" parent="1" vertex="1">
          <mxGeometry x="430" y="185" width="140" height="30" as="geometry" />
        </mxCell>
        <mxCell id="rFBtfZBmvq5GdR2NCA0t-8" value="" style="endArrow=none;html=1;rounded=0;entryX=0;entryY=0.5;entryDx=0;entryDy=0;exitX=1;exitY=0.3333333333333333;exitDx=0;exitDy=0;exitPerimeter=0;" parent="1" source="rFBtfZBmvq5GdR2NCA0t-1" target="rFBtfZBmvq5GdR2NCA0t-3" edge="1">
          <mxGeometry width="50" height="50" relative="1" as="geometry">
            <mxPoint x="440" y="230" as="sourcePoint" />
            <mxPoint x="490" y="180" as="targetPoint" />
          </mxGeometry>
        </mxCell>
        <mxCell id="rFBtfZBmvq5GdR2NCA0t-9" value="" style="endArrow=none;html=1;rounded=0;entryX=0;entryY=0.5;entryDx=0;entryDy=0;exitX=1;exitY=0.3333333333333333;exitDx=0;exitDy=0;exitPerimeter=0;" parent="1" source="rFBtfZBmvq5GdR2NCA0t-1" target="rFBtfZBmvq5GdR2NCA0t-4" edge="1">
          <mxGeometry width="50" height="50" relative="1" as="geometry">
            <mxPoint x="350" y="169" as="sourcePoint" />
            <mxPoint x="440" y="105" as="targetPoint" />
          </mxGeometry>
        </mxCell>
        <mxCell id="rFBtfZBmvq5GdR2NCA0t-10" value="" style="endArrow=none;html=1;rounded=0;entryX=0;entryY=0.5;entryDx=0;entryDy=0;exitX=1;exitY=0.3333333333333333;exitDx=0;exitDy=0;exitPerimeter=0;" parent="1" source="rFBtfZBmvq5GdR2NCA0t-1" target="rFBtfZBmvq5GdR2NCA0t-5" edge="1">
          <mxGeometry width="50" height="50" relative="1" as="geometry">
            <mxPoint x="350" y="170" as="sourcePoint" />
            <mxPoint x="440" y="155" as="targetPoint" />
          </mxGeometry>
        </mxCell>
        <mxCell id="rFBtfZBmvq5GdR2NCA0t-11" value="" style="endArrow=none;html=1;rounded=0;entryX=0;entryY=0.5;entryDx=0;entryDy=0;exitX=1;exitY=0.3333333333333333;exitDx=0;exitDy=0;exitPerimeter=0;" parent="1" source="rFBtfZBmvq5GdR2NCA0t-1" target="rFBtfZBmvq5GdR2NCA0t-2" edge="1">
          <mxGeometry width="50" height="50" relative="1" as="geometry">
            <mxPoint x="350" y="170" as="sourcePoint" />
            <mxPoint x="440" y="210" as="targetPoint" />
          </mxGeometry>
        </mxCell>
      </root>
    </mxGraphModel>
  </diagram>
</mxfile>
